<?xml version="1.0" encoding="utf-8"?>
<!-- Generator: Adobe Illustrator 16.0.0, SVG Export Plug-In . SVG Version: 6.00 Build 0)  -->
<!DOCTYPE svg PUBLIC "-//W3C//DTD SVG 1.1//EN" "http://www.w3.org/Graphics/SVG/1.1/DTD/svg11.dtd">
<svg version="1.1" id="Layer_1" xmlns="http://www.w3.org/2000/svg" xmlns:xlink="http://www.w3.org/1999/xlink" x="0px" y="0px"
	 width="335.986px" height="235.19px" viewBox="0 0 335.986 235.19" enable-background="new 0 0 335.986 235.19"
	 xml:space="preserve">
<g>
	<g>
		<g>
			<rect x="0" fill="#FEABAA" width="335.986" height="235.19"/>
		</g>
	</g>
</g>
<g>
	<path fill="#3D3D3D" d="M167.867,119.245l0.406-59.831c-18.238-0.109-35.954,8.148-47.511,22.934l0.109,0.086
		c-2.363,3.019-4.475,6.301-6.273,9.85c-9.697,19.129-8.127,41.004,2.219,58.095c5.596,9.241,13.75,17.083,24.094,22.328
		c2.854,1.446,5.768,2.634,8.718,3.589c5.899,1.908,11.942,2.838,17.93,2.873l0.408-59.829l-0.156-0.139L167.867,119.245z"/>
</g>
<g>
	<path fill="#3D3D3D" d="M186.205,62.288c-5.9-1.907-11.943-2.839-17.932-2.874l-0.406,59.831l51.148-31.04
		c-5.598-9.239-13.75-17.084-24.094-22.328C192.068,64.432,189.154,63.243,186.205,62.288z"/>
</g>
<g>
	<path fill="#3D3D3D" d="M219.016,88.205l-51.148,31.04l0.156,0.139l-0.057-0.045l-0.408,59.829
		c18.238,0.109,35.955-8.147,47.512-22.933l-0.107-0.086c2.361-3.019,4.475-6.3,6.273-9.85
		C230.934,127.17,229.361,105.295,219.016,88.205z"/>
</g>
<g>
	<path fill="#FFFFFF" d="M167.859,204.081c-46.736,0-84.759-38.022-84.759-84.759s38.023-84.759,84.759-84.759
		c46.735,0,84.758,38.022,84.758,84.759S214.595,204.081,167.859,204.081z M167.859,44.563c-41.222,0-74.759,33.537-74.759,74.759
		c0,41.222,33.537,74.759,74.759,74.759c41.222,0,74.758-33.537,74.758-74.759C242.617,78.1,209.081,44.563,167.859,44.563z"/>
</g>
<g>
	<circle fill="#3D3D3D" cx="189.873" cy="20.148" r="7.388"/>
</g>
<g>
	<circle fill="#3D3D3D" cx="31.515" cy="209.306" r="7.388"/>
</g>
<g>
	<circle fill="#3D3D3D" cx="319.009" cy="85.957" r="7.388"/>
</g>
<g>
	<circle fill="#3D3D3D" cx="207.71" cy="26.529" r="5.069"/>
</g>
<g>
	<circle fill="#3D3D3D" cx="36.585" cy="15.641" r="5.069"/>
</g>
<g>
	<circle fill="#3D3D3D" cx="204.955" cy="215.622" r="5.069"/>
</g>
<g>
	<circle fill="#3D3D3D" cx="306.399" cy="168.426" r="5.069"/>
</g>
<g>
	<circle fill="#3D3D3D" cx="19.007" cy="87.241" r="5.069"/>
</g>
<g>
	<circle fill="#3D3D3D" cx="71.123" cy="135.395" r="5.069"/>
</g>
<g>
	<path fill="#1D1D1B" d="M85.97,190.408h-6v-1h6V190.408z M73.97,190.408h-6v-1h6V190.408z M61.97,190.408h-6v-1h6V190.408z
		 M49.97,190.408h-6v-1h6V190.408z M37.97,190.408h-6v-1h6V190.408z M25.97,190.408h-6v-1h6V190.408z M19.507,184.87h-1v-6h1V184.87
		z M19.507,172.87h-1v-6h1V172.87z M19.507,160.87h-1v-6h1V160.87z M19.507,148.87h-1v-1.261l3.464-3.78l0.737,0.676l-3.202,3.493
		V148.87z M26.762,140.081l-0.737-0.676l4.054-4.424l0.737,0.676L26.762,140.081z M34.87,131.233l-0.737-0.676l4.054-4.424
		l0.737,0.676L34.87,131.233z M41.417,121.391h-1v-6h1V121.391z M41.417,109.391h-1v-6h1V109.391z M41.417,97.391h-1v-6h1V97.391z
		 M41.417,85.391h-1v-5.725h0.11l0.548-0.548l0.341,0.341V85.391z M36.125,75.582l-4.243-4.243l0.707-0.707l4.243,4.243
		L36.125,75.582z M27.641,67.097l-1.853-1.853V61.45h1v3.38l1.56,1.56L27.641,67.097z M26.788,55.45h-1v-6h1V55.45z M26.788,43.45
		h-1v-6h1V43.45z M83.48,35.143h-6v-1h6V35.143z M71.48,35.143h-6v-1h6V35.143z M59.48,35.143h-6v-1h6V35.143z M47.48,35.143h-6v-1
		h6V35.143z M35.48,35.143h-6v-1h6V35.143z"/>
</g>
<g>
	<path fill="#1D1D1B" d="M318.048,190.408h-6v-1h6V190.408z M306.048,190.408h-6v-1h6V190.408z M294.048,190.408h-6v-1h6V190.408z
		 M282.048,190.408h-6v-1h6V190.408z M270.048,190.408h-6v-1h6V190.408z M258.048,190.408h-6v-1h6V190.408z M319.51,184.87h-1v-6h1
		V184.87z M319.51,172.87h-1v-6h1V172.87z M319.51,160.87h-1v-6h1V160.87z M319.51,148.87h-1v-0.872l-3.202-3.494l0.738-0.676
		l3.464,3.781V148.87z M311.255,140.08l-4.053-4.423l0.736-0.676l4.053,4.423L311.255,140.08z M303.148,131.233l-4.054-4.424
		l0.736-0.676l4.054,4.424L303.148,131.233z M297.602,121.39h-1v-6h1V121.39z M297.602,109.39h-1v-6h1V109.39z M297.602,97.39h-1v-6
		h1V97.39z M297.602,85.39h-1v-5.931l0.342-0.342l0.549,0.549h0.109V85.39z M301.894,75.582l-0.707-0.707l4.242-4.243l0.707,0.707
		L301.894,75.582z M310.378,67.096l-0.707-0.707l1.56-1.559v-3.381h1v3.795L310.378,67.096z M312.23,55.449h-1v-6h1V55.449z
		 M312.23,43.449h-1v-6h1V43.449z M308.537,35.143h-6v-1h6V35.143z M296.537,35.143h-6v-1h6V35.143z M284.537,35.143h-6v-1h6V35.143
		z M272.537,35.143h-6v-1h6V35.143z M260.537,35.143h-6v-1h6V35.143z"/>
</g>
<g>
	<path fill="#3D3D3D" d="M124.209,53.622c0,19.597-15.885,35.484-35.484,35.484c-19.595,0-35.479-15.888-35.479-35.484
		c0-19.594,15.885-35.479,35.479-35.479C108.325,18.143,124.209,34.028,124.209,53.622z"/>
</g>
<g>
	<path fill="#FFFFFF" d="M124.209,184.237c0,19.597-15.885,35.485-35.484,35.485c-19.595,0-35.479-15.889-35.479-35.485
		c0-19.594,15.885-35.479,35.479-35.479C108.325,148.758,124.209,164.644,124.209,184.237z"/>
</g>
<g>
	<path fill="#0099D8" d="M63.21,118.71c0,12.985-10.526,23.514-23.515,23.514c-12.983,0-23.509-10.528-23.509-23.514
		c0-12.983,10.525-23.51,23.509-23.51C52.684,95.2,63.21,105.727,63.21,118.71z"/>
</g>
<g>
	<path fill="#0099D8" d="M283.1,53.622c0,19.597-15.885,35.484-35.484,35.484c-19.594,0-35.479-15.888-35.479-35.484
		c0-19.594,15.885-35.479,35.479-35.479C267.215,18.143,283.1,34.028,283.1,53.622z"/>
</g>
<g>
	<path fill="#FFFFFF" d="M321.154,118.71c0,12.985-10.525,23.514-23.514,23.514c-12.984,0-23.51-10.528-23.51-23.514
		c0-12.983,10.525-23.51,23.51-23.51C310.629,95.2,321.154,105.727,321.154,118.71z"/>
</g>
<g>
	<path fill="#3D3D3D" d="M283.1,184.237c0,19.597-15.885,35.485-35.484,35.485c-19.594,0-35.479-15.889-35.479-35.485
		c0-19.594,15.885-35.479,35.479-35.479C267.215,148.758,283.1,164.644,283.1,184.237z"/>
</g>
<g>
	<g>
		<g>
			<g>
				<path fill="#E57373" d="M112.783,175.958c0-5.161-4.225-9.385-9.388-9.385H74.06c-5.161,0-9.387,4.224-9.387,9.385v8.282h48.109
					V175.958z"/>
			</g>
			<g>
				<path fill="#F44336" d="M64.673,184.24v8.284c0,5.161,4.226,9.384,9.387,9.384h29.335c5.163,0,9.388-4.223,9.388-9.384v-8.284
					H64.673z"/>
			</g>
		</g>
		<g>
			<path fill-rule="evenodd" clip-rule="evenodd" fill="#FFFFFF" d="M97.855,184.904l-10.978,7.982
				c-0.23,0.169-0.531,0.249-0.837,0.265c-0.025,0.001-0.047,0.013-0.075,0.013c-0.618,0-1.116-0.498-1.116-1.113v-15.619
				c0-0.616,0.498-1.112,1.11-1.114h-0.004h0.01c0.006,0,0.013,0.004,0.02,0.004c0.324,0.004,0.645,0.093,0.893,0.27l10.978,7.982
				C98.361,183.94,98.361,184.536,97.855,184.904z"/>
		</g>
	</g>
</g>
<g>
	<path fill="#42A5F5" d="M167.916,77.685v82.944c-22.904,0-41.471-18.57-41.471-41.473
		C126.445,96.253,145.012,77.685,167.916,77.685"/>
</g>
<g>
	<path fill="#2196F3" d="M167.916,77.685v82.944c22.902,0,41.473-18.57,41.473-41.473C209.389,96.253,190.818,77.685,167.916,77.685
		"/>
</g>
<g>
	<path fill="#90CAF9" d="M190.904,104.867c0.072,0.023,0.143,0.055,0.199,0.088C190.893,104.828,190.838,104.81,190.904,104.867"/>
</g>
<g>
	<path fill="#90CAF9" d="M177.027,85.389c0.123-0.736,3.08-4.686,4.396-4.498c-4.551-0.651-9.029-0.775-13.508-0.636v8.774
		c0.359-0.254,0.764-0.49,1.238-0.644C170.617,87.91,176.807,86.697,177.027,85.389"/>
</g>
<g>
	<path fill="#90CAF9" d="M209.275,116.854c-0.047-0.766-0.072-1.543-0.156-2.304c-0.047-0.408-0.131-0.81-0.188-1.216
		c-0.145-1.011-0.289-2.019-0.504-3.001c-0.043-0.19-0.102-0.37-0.148-0.56c-0.273-1.174-0.578-2.341-0.951-3.481
		c-0.01-0.038-0.031-0.075-0.043-0.116c-1.693-5.122-4.352-9.806-7.764-13.835c-0.09-0.103-0.188-0.199-0.275-0.303
		c-0.76-0.884-1.555-1.738-2.387-2.555c-0.035-0.031-0.07-0.059-0.104-0.089c0.119,0.948,0.514,2.873,1.432,2.511
		c-0.365,0.186-0.717,0.162-1.057-0.063c0.67,1.027-13.102,5.609-12.898,6.02c0.02,0.033,0.035,0.064,0.051,0.097
		c-0.139,0.024-0.287,0.191-0.416,0.624c-0.527,1.706,3.551,2.615-1.596,2.224c-3.066-0.237-0.23,6.596,1.691,4.28
		c0.139-0.161,5.328-5.194,5.49-4.148c-0.219-1.404,4.545,2.064,4.33,2.501c-0.279,0.621-0.723,0.917-1.342,0.891
		c0.619,0.495,2.242-1.129,2.322-1.292c-0.207,0.411-3.324-3.443-2.812-3.346c2.492,0.449,3.756,3.238,4.861,5.082
		c-0.4-0.667,2.67-2.561,2.5-2.052c-1.193,3.586,4.072,1.614,5.064,2.772c2.242,2.612-6.195,3.883-7.984,1.646
		c2.648,3.312-4.992-1.827-5.488-2.273c-1.58-0.547-6.699,0.932-8.324,0.754c-5.654,6.338-8.578,10.859-3.031,18.251
		c1.268,1.687,7.02-0.535,9.148,0.624c2.797,1.521,2.049,5.749,3.926,8.879c1.34,2.239-1.291,7.968,1.248,10.93
		c1.059,1.236,2.514,2.848,4.041,3.445c6.125-6.429,10.229-14.808,11.229-24.125c0.029-0.293,0.045-0.588,0.062-0.881
		c0.066-0.745,0.094-1.504,0.115-2.26c-3.104-2.332-5.83-9.027-6.48-10.98c0.127,0.372,4.672,6.729,6.521,9.056
		C209.35,117.986,209.305,117.423,209.275,116.854"/>
</g>
<g>
	<path fill="#90CAF9" d="M193.559,93.315c2.369-1.883-0.336-3.169,2.789-4.296c-0.371-0.35-0.752-0.696-1.137-1.035
		c-0.383-0.336-0.756-0.682-1.148-1.006c-0.051-0.038-0.107-0.072-0.158-0.113c-2.303,1.972-3.473,4.04-4.764,5.331
		C190.875,90.463,191.594,94.877,193.559,93.315"/>
</g>
<g>
	<path fill="#BBDEFB" d="M136.45,117.581c0.242-0.123,1.305-3.012,0.936-3.259c-1.687-1.127-3.19,4.319-5.175,0.849
		c-1.027-1.799,0.806-5.323,2.632-5.845c0.57-0.164,6.545-0.172,7.195,1.323c0-1.044-0.566-2.2,0.346-2.886
		c1.24-0.928,3.986-2.083,4.414-3.79c0.387-1.526,5.543-4.123,6.633-4.472c-0.457,0.146-1.092,0.951-0.858,1.499
		c-0.274-0.64,3.864-1.142,3.313-2.065c0.015,0.03-1.779,0.305-2.166,0.158c-0.457-0.18,1.129-0.978,0.751-1.145
		c-0.445-0.2-1.782,0.009-2.271,0.088c-0.112,0.02,8.144-2.392,7.226-3.122c-0.173-0.14-2.354-3.626-1.649-3.389
		c-0.599-0.201-5.353-0.888-5.688-0.583c-0.45,0.415-3.732,6.455-5.019,4.91c-0.587-0.701,0.369-1.205,0.447-1.651
		c-11.019-1.203,5.411-6.359,5.531-7.538c0-0.015-4.931-0.008-9.236-0.022c0.946-0.132,1.721-0.629,2.032-1.719
		c-0.069,0.237-0.639,0.199-1.421,0.077c-0.731,0.504-1.433,1.044-2.13,1.59c0.084,0.016,0.172,0.034,0.257,0.047
		c-0.104,0-0.206,0-0.313-0.004c-8.135,6.432-13.773,15.842-15.319,26.594c4.548,4.009,12.606,8.723,13.459,9.393
		C139.553,120.863,138.887,116.368,136.45,117.581"/>
</g>
<g>
	<path fill="#BBDEFB" d="M142.038,110.649c0,0.442-0.101,0.862-0.459,1.221C142.068,111.381,142.184,110.98,142.038,110.649"/>
</g>
<g>
	<path fill="#BBDEFB" d="M153,85.924c4.676-2.336,2.441,3.579,2.209,3.412c0.783,0.62,1.656,0.956,2.62,0.998
		c2.75-0.416,0.951-6.713-4.627-6.151C153.142,84.245,151.651,86.599,153,85.924"/>
</g>
<g>
	<path fill="#BBDEFB" d="M161.749,128.915c-2.371-0.53-3.299-1.436-5.49-1.118c4.456-0.635-9.821-7.77-9.773-7.719
		c-0.111-0.112-0.461,0.961-0.634,1.366c0.097-0.562-1.491-1.613-2.67-0.173c-1.03,1.259-1.048,2.75-1.557,4.385
		c-1.437,4.614-1.883,6.508,2.362,10.749c4.645,4.65,2.103,14.253,5.247,19.739c1.062,0.54,2.147,1.039,3.261,1.486
		c0.526-1.59,0.354-3.515-0.25-5.564c3.204-0.867,1.721-2.107,2.318-4.195c-0.504,1.768,11.572-12.479,9.171-12.467
		C166.35,135.393,165.203,129.68,161.749,128.915"/>
</g>
<g>
	<path fill="#BBDEFB" d="M167.916,80.255c-4.392,0.137-8.785,0.523-13.242,0.92c0.46,1.268,4.723,2.316,7.709,1.449
		c1.25,0.829,2.476,0.517,3.464,2.498c1.256,2.508-1.959,1.212-1.68,2.209c1.398,4.975,1.896,3.026,3.748,1.702V80.255z"/>
</g>
<g>
	<path fill="#E57373" d="M201.848,70.146c-8.326,0-15.08,6.753-15.08,15.081c0,8.326,15.08,26.392,15.08,26.392V70.146z"/>
</g>
<g>
	<path fill="#F44336" d="M201.848,70.146c8.328,0,15.078,6.753,15.078,15.081c0,8.326-15.078,26.392-15.078,26.392V70.146z"/>
</g>
<g>
	<path fill="#FAFAFA" d="M209.389,85.4c0,4.164-3.379,7.538-7.541,7.538c-4.164,0-7.543-3.374-7.543-7.538s3.379-7.541,7.543-7.541
		C206.01,77.859,209.389,81.236,209.389,85.4"/>
</g>
<g>
	<path fill="#F44336" d="M264.547,36.696c9.623,9.623,9.623,25.223,0,34.845c-9.623,9.624-25.225,9.624-34.846,0"/>
</g>
<g>
	<path fill="#EF5350" d="M264.547,36.696c-9.623-9.623-25.225-9.623-34.846,0c-9.625,9.623-9.625,25.223,0,34.845"/>
</g>
<g>
	<path fill="#E0E0E0" d="M258.211,43.029c6.125,6.126,6.125,16.054,0,22.177c-6.123,6.126-16.051,6.126-22.176,0"/>
</g>
<g>
	<path fill="#FAFAFA" d="M258.211,43.029c-6.123-6.122-16.051-6.122-22.176,0c-6.125,6.126-6.125,16.054,0,22.177"/>
</g>
<g>
	<path fill="#F44336" d="M253.457,47.784c3.5,3.499,3.5,9.172,0,12.672c-3.496,3.499-9.172,3.499-12.668,0"/>
</g>
<g>
	<path fill="#EF5350" d="M253.457,47.784c-3.496-3.499-9.172-3.499-12.668,0c-3.502,3.499-3.502,9.172,0,12.672"/>
</g>
<g>
	<path fill="#263238" d="M261.15,41.673l9.371-0.792c0.592,0,1.162-0.235,1.584-0.656l3.482-3.483
		c1.08-1.08,0.785-2.902-0.584-3.587l-4.348-0.985L261.15,41.673z"/>
</g>
<g>
	<path fill="#455C66" d="M259.568,40.088l0.791-9.367c0-0.593,0.238-1.163,0.656-1.584l3.484-3.482
		c1.08-1.081,2.904-0.785,3.586,0.583l0.986,4.349L259.568,40.088z"/>
</g>
<g>
	<path fill="#455C66" d="M270.045,31.196c-0.871-0.87-2.297-0.87-3.168,0l-15.84,15.841l1.584,1.584L270.045,31.196z"/>
</g>
<g>
	<path fill="#263238" d="M254.203,50.205l15.842-15.838c0.869-0.872,0.869-2.299,0-3.168l-17.424,17.422L254.203,50.205z"/>
</g>
<g>
	<polygon fill="#263238" points="251.037,47.037 247.869,53.373 254.203,50.205 	"/>
</g>
<g>
	<g>
		<path fill="#3D3D3D" d="M311.389,111.548c-0.344-1.865-1.76-3.376-3.617-3.763c-6.373-1.33-12.744-1.317-19.117,0.039
			c-1.775,0.381-3.145,1.781-3.572,3.546c-1,4.117-1,8.23,0,12.345c0.428,1.763,1.795,3.164,3.566,3.544
			c0.564,0.12,1.127,0.218,1.689,0.315c0.82,1.719,2.062,3.037,3.785,3.902c0.658,0.332,1.457,0.277,2.084-0.115
			c1.336-0.835,2.404-1.883,3.26-3.096c2.77-0.072,5.541-0.384,8.312-0.965c1.852-0.389,3.266-1.898,3.607-3.76
			C312.129,119.544,312.129,115.547,311.389,111.548z"/>
	</g>
</g>
<g>
	<g>
		<path fill="#FFFFFF" d="M107.596,42.104c-0.286-1.019-1.137-1.796-2.172-2.007c-2.725-0.567-5.447-0.986-8.172-1.278
			c-0.005-0.074,0.004-0.149-0.004-0.227c-0.18-1.958-1.647-3.592-3.564-4.035c-3.566-0.815-7.131-0.793-10.7,0.073
			c-1.731,0.419-3.147,1.789-3.472,3.539c-0.047,0.238-0.053,0.478-0.067,0.714c-2.573,0.291-5.146,0.688-7.717,1.224
			c-1.001,0.209-1.839,0.943-2.146,1.923c-2.396,7.601-2.373,15.24-0.008,22.92c0.312,1.006,1.18,1.758,2.216,1.948
			c11.19,2.061,22.381,2.064,33.569,0.014c1.068-0.196,1.955-0.989,2.241-2.038C109.688,57.246,109.709,49.654,107.596,42.104z
			 M88.483,60.939c-4.164,0-7.541-3.375-7.541-7.538c0-4.169,3.377-7.544,7.541-7.544c4.166,0,7.542,3.375,7.542,7.544
			C96.025,57.564,92.649,60.939,88.483,60.939z"/>
	</g>
</g>
<g>
	<path fill="#FFFFFF" d="M52.657,114.572c-0.294-1.171-1.26-2.047-2.445-2.276c-0.461-0.089-0.922-0.156-1.383-0.233
		c-0.459-4.664-4.402-8.323-9.186-8.323c-4.792,0-8.742,3.675-9.188,8.353c-0.458,0.077-0.918,0.146-1.375,0.235
		c-1.122,0.22-2.018,1.074-2.329,2.174c-1.304,4.589-1.292,9.2-0.005,13.835c0.32,1.16,1.299,2.013,2.486,2.217
		c6.973,1.194,13.947,1.197,20.922,0.013c1.215-0.21,2.212-1.103,2.505-2.301C53.788,123.679,53.797,119.115,52.657,114.572z
		 M39.816,125.915c-1.488,0-2.693-1.206-2.693-2.692c0-1.03,0.583-1.914,1.432-2.368v-2.712c0-0.696,0.564-1.26,1.261-1.26
		c0.695,0,1.26,0.563,1.26,1.26v2.712c0.85,0.454,1.435,1.338,1.435,2.368C42.509,124.709,41.303,125.915,39.816,125.915z
		 M33.055,111.709c0.592-3.097,3.32-5.448,6.588-5.448c3.262,0,5.984,2.341,6.584,5.43
		C41.836,111.166,37.446,111.171,33.055,111.709z"/>
</g>
<g>
	<g>
		<g>
			<path fill="#FFFFFF" d="M251.25,187.214c0.301-0.204,0.682-0.471,1.135-0.8c0.238-0.172,0.43-0.307,0.584-0.418
				c0.139-0.102,0.246-0.176,0.311-0.224c0.459-0.319,1.174-0.815,2.131-1.478c1.748-1.216,4.314-3,7.721-5.365
				c1.025-0.714,1.879-1.574,2.568-2.586c0.686-1.01,1.029-2.068,1.029-3.178c0-0.929-0.334-1.722-1-2.377
				c-0.666-0.664-1.457-0.994-2.367-0.994c-5.164-0.909-10.33-1.369-15.492-1.369c-5.16,0-10.328,0.46-15.49,1.369
				c-1.08,0-1.912,0.37-2.494,1.098c-0.582,0.729-0.873,1.641-0.873,2.734c0,0.885,0.387,1.844,1.156,2.872
				c0.773,1.035,1.596,1.844,2.465,2.431c0.477,0.338,1.914,1.339,4.314,2.998c1.299,0.901,2.42,1.684,3.389,2.36
				c0.826,0.575,1.539,1.071,2.125,1.484c0.066,0.046,0.174,0.122,0.314,0.224c0.152,0.111,0.346,0.246,0.578,0.418
				c0.459,0.329,0.838,0.596,1.141,0.8c0.299,0.206,0.664,0.433,1.092,0.687c0.428,0.25,0.832,0.442,1.213,0.569
				c0.379,0.122,0.73,0.188,1.051,0.188h0.02h0.023c0.322,0,0.672-0.066,1.053-0.188c0.375-0.127,0.779-0.319,1.209-0.569
				C250.582,187.646,250.947,187.42,251.25,187.214z"/>
		</g>
	</g>
	<g>
		<g>
			<g>
				<path fill="#FFFFFF" d="M264.934,181.53l-7.715,5.358l-2.115,1.469l-0.297,0.21l-0.568,0.411
					c-0.488,0.35-0.895,0.637-1.227,0.861c-0.342,0.23-0.76,0.494-1.25,0.783c-0.619,0.365-1.23,0.648-1.818,0.845
					c-0.699,0.232-1.391,0.35-2.094,0.35c-0.658,0-1.352-0.117-2.053-0.35c-0.588-0.196-1.199-0.479-1.816-0.845
					c-0.494-0.293-0.912-0.557-1.256-0.787c-0.326-0.221-0.73-0.508-1.221-0.857l-0.578-0.423l-0.285-0.194
					c-0.584-0.413-1.293-0.909-2.111-1.481c-0.969-0.673-2.092-1.455-3.385-2.35c-2.41-1.669-3.859-2.675-4.289-2.979
					c-0.975-0.661-1.896-1.532-2.748-2.571c-0.969,5.263-0.924,10.513,0.182,15.733c0.441,2.095,2.176,3.657,4.281,4.02
					c10.23,1.761,20.459,1.764,30.689,0.005c2.115-0.362,3.859-1.936,4.281-4.044c0.98-4.923,1.061-10.163,0.104-15.764
					C266.863,179.906,265.982,180.798,264.934,181.53z"/>
			</g>
		</g>
		<g>
			<g>
				<path fill="#FFFFFF" d="M232.633,178.93c0.477,0.338,1.914,1.339,4.314,2.998c1.299,0.901,2.42,1.684,3.389,2.36
					c0.826,0.575,1.539,1.071,2.125,1.484c0.066,0.046,0.174,0.122,0.314,0.224c0.152,0.111,0.346,0.246,0.578,0.418
					c0.459,0.329,0.838,0.596,1.141,0.8c0.299,0.206,0.664,0.433,1.092,0.687c0.428,0.25,0.832,0.442,1.213,0.569
					c0.379,0.122,0.73,0.188,1.051,0.188h0.02h0.023c0.322,0,0.672-0.066,1.053-0.188c0.375-0.127,0.779-0.319,1.209-0.569
					c0.428-0.254,0.793-0.48,1.096-0.687c0.301-0.204,0.682-0.471,1.135-0.8c0.238-0.172,0.43-0.307,0.584-0.418
					c0.139-0.102,0.246-0.176,0.311-0.224c0.459-0.319,1.174-0.815,2.131-1.478c1.748-1.216,4.314-3,7.721-5.365
					c1.025-0.714,1.879-1.574,2.568-2.586c0.182-0.27,0.338-0.543,0.473-0.815c-0.801-0.832-1.863-1.413-3.057-1.595
					c-10.152-1.55-20.307-1.545-30.463,0.013c-1.201,0.186-2.277,0.772-3.076,1.618c0.164,0.304,0.354,0.613,0.592,0.935
					C230.941,177.534,231.764,178.343,232.633,178.93z"/>
			</g>
		</g>
	</g>
</g>
</svg>
